<svg xmlns="http://www.w3.org/2000/svg" width="100" viewBox="0 0 838.55 620.45"><defs><style>.cls-1{fill:#8b8f90;}.cls-2{fill:#dedad2;}.cls-3{fill:#f0ebe9;}.cls-4{fill:#fff;}.cls-5{fill:#ada497;}</style></defs><title>Asset 1</title><g id="Layer_2" data-name="Layer 2"><g id="Layer_1-2" data-name="Layer 1"><g id="widget"><path class="cls-1" d="M70.18,608.12c68.68,7.4,184.58,12.33,349.13,12.33,157.39,0,277.59-3.7,349.13-12.34a67.9,67.9,0,0,0,25.76-7.4,78,78,0,0,0,12.16-8h0l2.15-1.85,2.15-1.85h0a25.34,25.34,0,0,0,5-6.78c5-6.78,7.15-14.8,8.59-23.44,8.59-59.21,14.31-107.31,14.31-249.17,0-135.68-4.29-187.49-13.59-248.55-.72-8-4.29-16-8.58-22.2a45.18,45.18,0,0,0-7.87-9.25l-1.43-1.23-1.43-1.23c-3.58-3.08-7.15-4.93-11.45-7.4C787,16,777,13.57,768.44,12.33,697.61,4.32,576.7,0,419.31,0,254.76,1.23,138.15,5.55,70.89,13a96.49,96.49,0,0,0-27.19,7.4c-2.86,1.23-5,3.08-7.87,4.32h0l-2.15,1.85-2.15,1.85h0a69.53,69.53,0,0,0-9.3,10.48C18,45,15.09,53.66,13.66,61.06,4.36,122.12-.65,174.54.07,309.61c0,141.85,5.72,190,14.31,249.17a51.21,51.21,0,0,0,9.3,22.82,52.23,52.23,0,0,0,7.87,9.25L33,592.08l1.43,1.23a51.66,51.66,0,0,0,10.73,6.78C51.58,604.41,60.88,607.5,70.18,608.12Z"/><path class="cls-2" d="M78,600.1c66.54,6.78,181,11.72,341.26,11.72,153.1,0,271.86-3.7,341.26-11.72,9.3-.62,17.17-3.7,24.32-7.4,4.29-2.47,7.87-4.32,11.45-7.4h0c.72-.62,2.15-.62,2.86-1.23l2.15-1.85h0a16.14,16.14,0,0,0,4.29-6.17c4.29-6.17,7.87-14.19,8.59-22.2,7.87-57.36,13.59-104.23,13.59-242.38,1.43-132-2.86-182.56-12.16-242.38a43.29,43.29,0,0,0-8.59-22.2,52.23,52.23,0,0,0-7.87-9.25l-1.43-1.23-1.43-1.23a51.65,51.65,0,0,0-10.73-6.78q-10.73-5.55-25.76-7.4C690.46,13,571.7,9.25,418.59,9.25c-158.83,0-274,4.32-340.54,12.34A67.89,67.89,0,0,0,52.29,29c-2.86,1.23-5,3.08-7.15,3.7h0L43,34.54l-2.15,1.85h0a52.89,52.89,0,0,0-8.58,9.87,44.79,44.79,0,0,0-7.87,21.59c-9.3,59.82-13.59,110.4-14.31,241.77,0,138.15,5,184.41,13.59,242.38.72,8,4.29,16,8.59,22.2a45.16,45.16,0,0,0,7.87,9.25l1.43,1.23L43,585.91a59.63,59.63,0,0,0,10.73,6.78C60.16,597,68.75,599.48,78,600.1Z"/><path class="cls-3" d="M134.57,539c52.23,5.55,158.11,9.25,284,9.25,120.19,0,229.65-3.08,284-9.25,7.15-1.23,13.59-3.08,18.6-6.17a40.71,40.71,0,0,0,8.59-6.17h0c.72-.62,2.15-.62,2.86-1.23l2.15-1.85h0c1.43-1.23,2.15-3.08,4.29-4.93a39.31,39.31,0,0,0,6.44-17.89c6.44-45,10.73-82,10.73-190.58,0-103.61-3.58-143.7-10.73-190.58-1.43-6.17-2.86-12.34-7.15-17.27a31.67,31.67,0,0,0-6.44-8l-.72-.62-.72-.62c-2.86-2.47-5.72-3.7-9.3-5.55a91.72,91.72,0,0,0-20-6.17c-52.23-5.55-161-8-281.88-8.63-125.92,0-231.8,3.7-284,9.25a56.33,56.33,0,0,0-20.75,5.55c-2.15.62-3.58,1.85-5.72,3.7h0l-2.15,1.85L104.52,95h0a31.67,31.67,0,0,0-6.44,8c-2.86,4.93-5.72,11.1-6.44,16.65-7.15,46.87-10.73,87-10.73,190.58,0,108.55,4.29,145.55,10.73,190.58a39.31,39.31,0,0,0,6.44,17.89,31.11,31.11,0,0,0,5.72,7.4l.72.62.72.62a36.83,36.83,0,0,0,8.59,4.93C120.26,536.57,126.7,538.42,134.57,539Z"/><path class="cls-4" d="M702.62,547.67c-67.25,9.87-394.92,13.57-490.07,5.55-78-1.85-104.45-19.74-115.18-11.72-13.59,9.25-21.46,17.27-25.76,21-15,14.19-22.18,21.59-9.3,25.29,23.61,5.55,260.42,13.57,362,13.57s318.37-8,344.12-13,4.29-18.5-9.3-29C737,542.74,722.65,544,702.62,547.67Z"/><path class="cls-5" d="M131,74.63c67.25-9.87,398.49-13,493.65-4.93,78,1.85,105.88,13.57,116.62,5.55C754.85,66,757,61.68,762,57.36c15-14.19,22.18-21.59,9.3-25.29-23.61-5.55-260.42-13.57-362-13.57C308.42,17.89,91.64,25.9,65.89,30.84s-4.29,18.5,9.3,29C98.8,77.71,111,78.33,131,74.63Z"/></g></g></g></svg>