<?xml version="1.0" encoding="utf-8" ?>
<!-- Generator: Assembly 1.0 - http://assemblyapp.co -->
<svg version="1.1" xmlns="http://www.w3.org/2000/svg" xmlns:xlink="http://www.w3.org/1999/xlink" preserveAspectRatio="none" width="100%" height="100%" viewBox="0 0 400 261">
	<g id="widget" transform="matrix(1,0,0,1,150,84.375)">
		<path d="M-72.4753,71.9156 C-58.1667,73.7041 -34.021,74.8965 0.260034,74.8965 C33.0506,74.8965 58.0906,74.0022 72.9954,71.9155 C74.933,71.7665 76.8706,71.0212 78.3611,70.127 C79.2554,69.5308 80.1497,68.9346 80.8949,68.1893 L80.8949,68.1893 C81.0439,68.0403 81.193,67.8912 81.342,67.7422 C81.4911,67.5931 81.6401,67.4441 81.7892,67.295 L81.7892,67.295 C82.2363,66.8479 82.5344,66.2517 82.8325,65.6555 C83.8759,64.016 84.323,62.0784 84.6211,59.9917 C86.4097,45.6831 87.6021,34.0574 87.602,-0.22362 C87.602,-33.0141 86.7077,-45.5342 84.7701,-60.2899 C84.6211,-62.2275 83.8758,-64.1651 82.9816,-65.6556 C82.5344,-66.4008 82.0873,-67.1461 81.342,-67.8913 C81.193,-68.0403 81.193,-68.0403 81.0439,-68.1894 C80.8949,-68.3384 80.8949,-68.3384 80.7458,-68.4875 C80.0006,-69.2327 79.2554,-69.6799 78.3611,-70.2761 C76.8706,-71.1704 74.7839,-71.7665 72.9954,-72.0647 C58.2396,-74.0023 33.0505,-75.0456 0.260021,-75.0456 C-34.021,-74.7475 -58.3158,-73.7041 -72.3263,-71.9156 C-74.4129,-71.6175 -76.2015,-71.0213 -77.9901,-70.127 C-78.5863,-69.8289 -79.0334,-69.3818 -79.6296,-69.0837 L-79.6296,-69.0837 C-79.7786,-68.9346 -79.9277,-68.7856 -80.0767,-68.6365 C-80.2258,-68.4875 -80.3748,-68.3384 -80.5239,-68.1894 L-80.5239,-68.1894 C-81.2691,-67.4441 -81.8653,-66.5499 -82.4615,-65.6556 C-83.3558,-64.1651 -83.952,-62.0784 -84.2501,-60.2898 C-86.1877,-45.5341 -87.231,-32.865 -87.082,-0.22357 C-87.082,34.0574 -85.8896,45.6831 -84.101,59.9918 C-83.8029,62.0784 -83.2067,63.867 -82.1634,65.5065 C-81.7163,66.2517 -81.1201,67.146 -80.5239,67.7422 C-80.3748,67.8913 -80.3748,67.8913 -80.2258,68.0403 C-80.0767,68.1894 -80.0767,68.1894 -79.9277,68.3384 C-79.1824,69.0837 -78.4372,69.5308 -77.692,69.978 C-76.3505,71.0213 -74.4129,71.7665 -72.4753,71.9156 Z" fill="#8b8f90" fill-opacity="1" />
		<path d="M-70.8358,69.9779 C-56.9743,71.6175 -33.1267,72.8099 0.260034,72.8098 C32.1563,72.8098 56.8982,71.9156 71.3558,69.9779 C73.2935,69.8289 74.933,69.0836 76.4235,68.1894 C77.3177,67.5932 78.063,67.146 78.8082,66.4008 L78.8082,66.4008 C78.9573,66.2517 79.2554,66.2517 79.4044,66.1027 C79.5535,65.9536 79.7025,65.8046 79.8516,65.6555 L79.8516,65.6555 C80.2987,65.2084 80.5968,64.6122 80.7458,64.1651 C81.6401,62.6746 82.3854,60.737 82.5344,58.7993 C84.174,44.9379 85.3663,33.6103 85.3663,0.223548 C85.6644,-31.6727 84.7701,-43.8946 82.8325,-58.3522 C82.6835,-60.2899 82.0873,-62.0784 81.0439,-63.718 C80.5968,-64.4632 80.0006,-65.3575 79.4044,-65.9537 C79.2554,-66.1027 79.2554,-66.1027 79.1063,-66.2518 C78.9573,-66.4008 78.9573,-66.4008 78.8082,-66.5499 C78.063,-67.2951 77.3177,-67.7423 76.5725,-68.1894 C75.082,-69.0837 73.2934,-69.6799 71.2068,-69.978 C56.7491,-71.9156 32.0072,-72.8099 0.110972,-72.8099 C-32.9776,-72.8099 -56.9743,-71.7665 -70.8358,-69.8289 C-72.7734,-69.6799 -74.711,-68.9346 -76.2015,-68.0403 C-76.7977,-67.7422 -77.2448,-67.2951 -77.692,-67.146 L-77.692,-67.146 C-77.841,-66.997 -77.9901,-66.8479 -78.1391,-66.6989 C-78.2882,-66.5499 -78.4372,-66.4008 -78.5863,-66.2518 L-78.5863,-66.2518 C-79.3315,-65.5065 -79.9277,-64.6122 -80.3748,-63.867 C-81.2691,-62.3765 -81.8653,-60.5879 -82.0144,-58.6503 C-83.952,-44.1927 -84.8463,-31.9708 -84.9953,-0.223581 C-84.9953,33.1631 -83.952,44.3417 -82.1634,58.3522 C-82.0144,60.2898 -81.2691,62.2274 -80.3748,63.7179 C-79.9277,64.4632 -79.4805,65.2084 -78.7353,65.9536 C-78.5862,66.1027 -78.5862,66.1027 -78.4372,66.2517 C-78.2881,66.4008 -78.2881,66.4008 -78.1391,66.5498 C-77.5429,67.146 -76.6486,67.7422 -75.9034,68.1894 C-74.562,69.2327 -72.7734,69.8289 -70.8358,69.9779 Z" fill="#dedad2" fill-opacity="1" />
		<path d="M-59.061,55.2222 C-48.1805,56.5636 -26.1214,57.4579 0.110987,57.4579 C25.151,57.4579 47.9553,56.7127 59.283,55.2222 C60.7734,54.9241 62.1149,54.477 63.1582,53.7317 C63.9035,53.2846 64.3506,52.8374 64.9468,52.2412 L64.9468,52.2412 C65.0958,52.0922 65.3939,52.0922 65.543,51.9431 C65.692,51.7941 65.8411,51.6451 65.9901,51.496 L65.9901,51.496 C66.2882,51.1979 66.4373,50.7508 66.8844,50.3036 C67.6296,48.9622 68.0768,47.6208 68.2258,45.9812 C69.5673,35.1008 70.4615,26.1579 70.4616,-0.074534 C70.4615,-25.1146 69.7163,-34.8027 68.2258,-46.1303 C67.9277,-47.6208 67.6296,-49.1113 66.7354,-50.3037 C66.4373,-50.8999 65.9901,-51.6451 65.3939,-52.2413 L65.2449,-52.3903 L65.0958,-52.5394 C64.4996,-53.1356 63.9034,-53.4337 63.1582,-53.8808 C61.9658,-54.477 60.4753,-55.0732 58.9849,-55.3713 C48.1044,-56.7127 25.4491,-57.3089 0.260032,-57.4579 C-25.9724,-57.4579 -48.0315,-56.5637 -58.912,-55.2222 C-60.5515,-55.0732 -61.8929,-54.626 -63.2343,-53.8808 C-63.6815,-53.7318 -63.9796,-53.4337 -64.4267,-52.9865 L-64.4267,-52.9865 C-64.5758,-52.8375 -64.7248,-52.6884 -64.8739,-52.5394 C-65.0229,-52.3903 -65.172,-52.2413 -65.321,-52.0922 L-65.321,-52.0922 C-65.9172,-51.496 -66.3643,-50.7508 -66.6624,-50.1546 C-67.2586,-48.9622 -67.8548,-47.4717 -68.0039,-46.1303 C-69.4943,-34.8027 -70.2396,-25.1146 -70.2396,-0.0745403 C-70.2396,26.1579 -69.3453,35.1007 -68.0039,45.9812 C-67.8548,47.6208 -67.4077,48.9622 -66.6624,50.3036 C-66.3643,50.8998 -65.9172,51.645 -65.47,52.0922 L-65.321,52.2412 L-65.172,52.3903 C-64.7248,52.8374 -63.9796,53.2846 -63.3834,53.5827 C-62.0419,54.626 -60.7005,55.0732 -59.061,55.2222 Z" fill="#f0ebe9" fill-opacity="1" />
		<path d="M59.283,57.3089 C45.2725,59.6936 -22.9914,60.5879 -42.8148,58.6503 C-59.061,58.2032 -64.5758,53.8808 -66.8115,55.8184 C-69.6434,58.0541 -71.2829,59.9917 -72.1772,60.886 C-75.3072,64.3141 -76.7977,66.1027 -74.1148,66.997 C-69.1962,68.3384 -19.8614,70.276 1.30338,70.276 C22.4682,70.276 67.6297,68.3384 72.9954,67.146 C78.3611,65.9536 73.8897,62.6746 71.0578,60.1408 C66.4373,56.1165 63.4563,56.4146 59.283,57.3089 Z" fill="#ffffff" fill-opacity="1" />
		<path d="M-59.8062,-57.0108 C-45.7957,-59.3956 23.2134,-60.1408 43.0367,-58.2032 C59.283,-57.7561 65.0958,-54.9242 67.3315,-56.8618 C70.1635,-59.0975 70.6106,-60.1408 71.6539,-61.1842 C74.7839,-64.6123 76.2744,-66.4008 73.5916,-67.2951 C68.673,-68.6366 19.3381,-70.5742 -1.82664,-70.5742 C-22.8424,-70.7232 -68.0039,-68.7856 -73.3696,-67.5932 C-78.7353,-66.4008 -74.2639,-63.1218 -71.432,-60.588 C-66.5134,-56.2656 -63.9796,-56.1165 -59.8062,-57.0108 Z" fill="#ada497" fill-opacity="1" />
	</g>
</svg>