<svg id="Layer_1" data-name="Layer 1" xmlns="http://www.w3.org/2000/svg" viewBox="0 0 221.58 221.64"><defs><style>.cls-1,.cls-2,.cls-21,.cls-22{fill-opacity:0;stroke:#000;stroke-linecap:square;}.cls-1{stroke-width:2.08px;}.cls-2{stroke-width:2px;}.cls-3{fill:#ec9a33;}.cls-4{fill:#fbfccd;}.cls-5{fill:#f1d89a;}.cls-6{fill:#ffc961;}.cls-7{fill:#b4794c;}.cls-8{fill:#ede1d2;}.cls-9{fill:#d3bca1;}.cls-10{fill:#92663c;}.cls-11{fill:#fd6f47;}.cls-12{fill:#eb2100;}.cls-13{fill:#e86900;}.cls-14{fill:#ffb500;}.cls-15{fill:#ffab82;}.cls-16{fill:#759e00;}.cls-17{fill:#e8ddcb;}.cls-18{fill:#fff;}.cls-19{fill:#4d4d4d;}.cls-20{fill:#868585;}.cls-21{stroke-width:0.8px;}.cls-22{stroke-width:0.44px;}</style></defs><title>LogoMathP4</title><g id="widget"><path class="cls-1" d="M150.15,261a109.78,109.78,0,0,1,0-219.56" transform="translate(-39.33 -40.36)"/><path class="cls-2" d="M159.28,151.91a15,15,0,0,1-26,15" transform="translate(-39.33 -40.36)"/><path class="cls-2" d="M153,150.54H259.38" transform="translate(-39.33 -40.36)"/><path class="cls-3" d="M53.48,99.23a101.48,101.48,0,0,0-14.15,51.82v.32A101.48,101.48,0,0,0,53.48,203.2c3.18,5.4,5.09,6.52,11.21,3.42,20.67-10.65,55.08-29,71.06-38.15,15.26-8.74,17.72-11.68,17.72-16.77v-1c0-5.09-2.46-8-17.72-16.77-16.06-9.22-50.47-27.58-71.14-38.23C58.65,92.64,56.74,93.75,53.48,99.23Z" transform="translate(-39.33 -40.36)"/><path class="cls-4" d="M69.93,108.53a82.34,82.34,0,0,0-11.52,42.52v.32A84.47,84.47,0,0,0,69.93,193.9c2.62,4.37,4.21,5.33,9.14,2.78C96,188,124.14,172.91,137.25,165.36c12.56-7.15,14.47-9.54,14.55-13.75,0-.16,0-.64,0-.79,0-4.13-2-6.6-14.55-13.75-13.11-7.55-41.25-22.65-58.18-31.32C74.15,103.21,72.56,104.16,69.93,108.53Z" transform="translate(-39.33 -40.36)"/><path class="cls-5" d="M109.44,128.64c-3.34-1.43-9-4.85-12.56,1S93.14,141.44,83,140s-10.57-2.94-14.78,1.91,3.42-.24,7.39,2,16,9.62,20.74.24,5.88-12.56,12.56-12.56S116.51,131.74,109.44,128.64Z" transform="translate(-39.33 -40.36)"/><path class="cls-5" d="M136.38,142.07c-3.89-2.94-11.29-2.23-13.43,2.3s-4.21,10.57-10.73,9.3-11-.64-2.86,3.82,13.51,6.68,18,.24,2.7-11.76,9.86-10.81S140.51,145.09,136.38,142.07Z" transform="translate(-39.33 -40.36)"/><path class="cls-5" d="M93.7,161.71c-4.05,4.05-7.31,7-12.64,4.05-5.48-2.94-11-1.59-13.67,2.54s4.53.08,12.48,5.33,13.83,4,16.06-3.66C98,162.34,98.15,157.25,93.7,161.71Z" transform="translate(-39.33 -40.36)"/><path class="cls-6" d="M52.47,161.21c-.6,4.18-2.47,8.24.87,11.16s4.31,8.27,4.34,11.62,1.31,7,3.89,6.72,6.66,1.45,3.81,3c-4.44,2.41-13.37,6.1-13,3.58.36-2.36,2.17-6.67-.55-9.38-2.73-2.55-4.21-7.62-3.12-11a12.57,12.57,0,0,0-1.61-10c-1.75-2.78-1-7.11,1.88-10.69S53.16,157,52.47,161.21ZM49.26,150.4c-3.09,3.48-2.69-.23-3.34-2.92s-.88-7.34,3.91-10.19S52.44,146.85,49.26,150.4Zm16.31-46.62c-3.21,3.87-8.08,7.68-6,8.73s.34,6.17-3.48,9.83c-2.44,2.34-9.49,5.48-6.17.34s9.29-10.61,5.91-10.26-1-6.07,3.44-9.36S68.78,99.91,65.57,103.78Z" transform="translate(-39.33 -40.36)"/><path class="cls-7" d="M80.5,143.58c-3.89,3.89-7.47.32-11.92-4.13s-7.95-8.11-4.13-11.92,10.65-4.29,15.5.56A10.82,10.82,0,0,1,80.5,143.58Z" transform="translate(-39.33 -40.36)"/><path class="cls-8" d="M80,143.58c-2.62,2.62-5.72,2.38-9.06.79-1.51-.72,0-4.77-1.35-6.12s-5.4,0-6.12-1.51c-1.51-3.26-1.67-6.28,1-8.9,3.74-3.74,10.33-3.34,14.7,1C83.37,133.25,83.84,139.77,80,143.58Z" transform="translate(-39.33 -40.36)"/><path class="cls-9" d="M76.77,131.11c-3.58-3.58-8.74-4.13-11.68-1.19-2,2-1.75,4.45-.48,7l.24.24a29.72,29.72,0,0,1-2.62,2.46c-.56.4.48,2.38,2.07,4s3.58,2.62,4,2.07a28.6,28.6,0,0,1,2.38-2.54l.16.16c2.62,1.35,5.09,1.59,7.07-.4C80.9,139.85,80.35,134.68,76.77,131.11Z" transform="translate(-39.33 -40.36)"/><path class="cls-10" d="M67.15,131.5a2.76,2.76,0,0,0-2.38.79c-1.11,1.11-1.11,3-.08,5.17A21.87,21.87,0,0,0,68,133.17C68.5,132.06,67.79,131.66,67.15,131.5Zm9.3,9.3c-.08-.72-.56-1.35-1.67-.87a29.11,29.11,0,0,0-4.29,3.34c2.07,1,4.05,1,5.17-.08A2.92,2.92,0,0,0,76.45,140.8Z" transform="translate(-39.33 -40.36)"/><path class="cls-7" d="M93.3,140.64c4.77-2.86,7.47,1.59,10.73,7.07s5.88,10,1,12.8-11.6,1.59-15.1-4.45C86.47,150.18,88.53,143.5,93.3,140.64Z" transform="translate(-39.33 -40.36)"/><path class="cls-8" d="M93.86,140.72c3.18-1.91,6.2-1,9.06,1.43,1.27,1.11-1.19,4.69-.16,6.36s5.33,1.35,5.72,3c.72,3.58,0,6.68-3.1,8.5-4.69,2.78-11,.64-14.23-4.69S89.17,143.5,93.86,140.72Z" transform="translate(-39.33 -40.36)"/><path class="cls-9" d="M93.94,153.84c2.62,4.37,7.63,6.2,11.13,4.13,2.38-1.43,2.78-3.89,2.23-6.84a.41.41,0,0,0-.16-.32,17,17,0,0,1,3.18-1.75c.64-.32.08-2.46-1-4.37s-2.78-3.42-3.34-3a15.56,15.56,0,0,1-3,1.91l-.16-.16c-2.3-2-4.69-2.78-7.07-1.35C92,144.14,91.31,149.47,93.94,153.84Z" transform="translate(-39.33 -40.36)"/><path class="cls-10" d="M103.55,155.82a2.84,2.84,0,0,0,2.54-.16c1.27-.79,1.75-2.7,1.35-5a21.79,21.79,0,0,0-4.29,3.34A1,1,0,0,0,103.55,155.82Zm-6.84-11.45c-.08.72.24,1.51,1.43,1.27a22.84,22.84,0,0,0,4.93-2.23c-1.83-1.51-3.74-2-5-1.19A2.6,2.6,0,0,0,96.72,144.38Z" transform="translate(-39.33 -40.36)"/><path class="cls-11" d="M72.08,176a14.12,14.12,0,0,1,11.6-25.75C80.5,157.25,75.58,168.22,72.08,176Z" transform="translate(-39.33 -40.36)"/><path class="cls-12" d="M73.11,173.23a11.24,11.24,0,1,1,9.22-20.51C79.79,158.29,75.82,167,73.11,173.23Z" transform="translate(-39.33 -40.36)"/><path class="cls-13" d="M71.68,162.26a1.31,1.31,0,0,0-1.67.87,1.28,1.28,0,0,0,1,1.59c.72.24,2.31-.24,2.38-.64A3.62,3.62,0,0,0,71.68,162.26ZM74,158a1.23,1.23,0,0,0-1.83.4,1.39,1.39,0,0,0,.4,1.83c.64.48,2.31.4,2.46.08C75.34,159.88,74.54,158.45,74,158Zm2.38-3.18a1.34,1.34,0,0,0-.64,1.75A3.91,3.91,0,0,0,77.8,158a2.57,2.57,0,0,0,.24-2.46A1.2,1.2,0,0,0,76.37,154.87Zm-5.25,12.24a1.38,1.38,0,0,0-1,1.59,1.31,1.31,0,0,0,1.67.87c.72-.24,1.75-1.43,1.67-1.83S71.84,166.87,71.13,167.11Z" transform="translate(-39.33 -40.36)"/><path class="cls-14" d="M73.51,158.21A.58.58,0,0,0,73,158a.49.49,0,0,0-.48.32.6.6,0,0,0-.08.56c0,.16.16.32.32.48a3.14,3.14,0,0,0,1.43.16.11.11,0,0,1,.16,0A13.58,13.58,0,0,0,73.51,158.21Zm-2.23,4.29c-.08-.08-.16,0-.32,0a.69.69,0,0,0-.64.48,1.55,1.55,0,0,0,.08.56,1,1,0,0,0,.48.32h.48a10.37,10.37,0,0,0,1-.24A3.7,3.7,0,0,0,71.29,162.5Zm5.4-7.47a.39.39,0,0,0-.24.08.83.83,0,0,0-.32,1,2.25,2.25,0,0,0,1.19.87,2.9,2.9,0,0,0,0-1.43C77.33,155.19,77,155,76.69,155Zm-5.56,12.24a1,1,0,0,0-.48.32.47.47,0,0,0-.08.56c.08.24.4.56.72.4h.16a2.19,2.19,0,0,0,1.11-1,3.8,3.8,0,0,0-1.43-.32Z" transform="translate(-39.33 -40.36)"/><path class="cls-15" d="M78.92,159a2.09,2.09,0,0,1-2.07.16c-.79-.48-.56.56-1.11,1.43a2.72,2.72,0,0,1-1.91,1.27c-.56.08.32.79.24,2s-1.51,1.83-1,2.23a2.82,2.82,0,0,1,1.27,2.23c0,1.11.64.16,1-.72s3.18-7,3.42-7.71S79.47,158.77,78.92,159Z" transform="translate(-39.33 -40.36)"/><path class="cls-11" d="M134.39,151.24a13.86,13.86,0,1,1-26.3,8.77C115.39,157.64,126.52,153.93,134.39,151.24Z" transform="translate(-39.33 -40.36)"/><path class="cls-12" d="M131.8,152.36a11,11,0,0,1-20.91,7C116.63,157.42,125.51,154.5,131.8,152.36Z" transform="translate(-39.33 -40.36)"/><path class="cls-13" d="M124.83,160.68a1.21,1.21,0,0,0,1.69.56,1.31,1.31,0,0,0,.56-1.8c-.34-.67-1.69-1.46-2-1.24A3,3,0,0,0,124.83,160.68Zm-4.61,1.12a1.35,1.35,0,0,0,1.46,1.12,1.27,1.27,0,0,0,1-1.46c-.11-.67-1.24-1.91-1.57-1.8S120.11,161.13,120.22,161.8Zm-3.93.34a1.38,1.38,0,0,0,1.69-.79,3.63,3.63,0,0,0-.34-2.36c-.45-.22-1.69.79-1.91,1.46A1.24,1.24,0,0,0,116.29,162.14Zm12.36-4.27a1.28,1.28,0,0,0,1.8-.45,1.44,1.44,0,0,0-.45-1.8,3.12,3.12,0,0,0-2.47,0C127.3,156,128,157.53,128.65,157.87Z" transform="translate(-39.33 -40.36)"/><path class="cls-14" d="M120.67,162a.85.85,0,0,0,.22.45.49.49,0,0,0,.56.11.85.85,0,0,0,.45-.22.84.84,0,0,0,.11-.56,2.52,2.52,0,0,0-.79-1.12.11.11,0,0,1-.11-.11A4.29,4.29,0,0,0,120.67,162Zm4.61-1.24c0,.11.11.11.11.22a.53.53,0,0,0,.67.11l.34-.34v-.56l-.34-.34h0a10.37,10.37,0,0,0-.9-.56A6.41,6.41,0,0,0,125.28,160.79Zm-9,1a.39.39,0,0,0,.22.11.71.71,0,0,0,.9-.45,3.24,3.24,0,0,0-.11-1.46,2.9,2.9,0,0,0-1,1A.47.47,0,0,0,116.29,161.8Zm12.48-4.16a.84.84,0,0,0,.56.11c.22,0,.34-.11.45-.34a.69.69,0,0,0-.11-.79h0l-.11-.11a2.14,2.14,0,0,0-1.46-.11,2.27,2.27,0,0,0,.67,1.24Z" transform="translate(-39.33 -40.36)"/><path class="cls-15" d="M117.64,157.64A2.17,2.17,0,0,1,119.1,159c.22.9.79,0,1.8-.22a2.83,2.83,0,0,1,2.25.56c.45.34.34-.79,1.35-1.46s2.36-.11,2.25-.79a2.54,2.54,0,0,1,.67-2.36c.79-.67-.22-.56-1.24-.22s-7.19,2.36-7.76,2.59C117.64,157.31,117.19,157.42,117.64,157.64Z" transform="translate(-39.33 -40.36)"/><path class="cls-16" d="M80.32,171.64a3.62,3.62,0,0,1,1.91,2.23A7.66,7.66,0,0,1,77.54,180c.64,1.27,1.35,2.46,1.91,3.5,3.74-1.67,5.88-3.82,6.44-9a4,4,0,0,1,.32-1.11,1.94,1.94,0,0,1,.72-.87c4.93-4.45,4.45-8.11,2.62-13.91l-.64-1.91-3.34,2.38c.16.32.16.64.24.72,1.27,4.13,1.59,6.84-.87,9.78l-.16.16c-.64.79-2.07.79-3.34,0A37.87,37.87,0,0,1,77,167.51a15,15,0,0,0-.87,2A33.52,33.52,0,0,1,80.32,171.64Z" transform="translate(-39.33 -40.36)"/><path class="cls-16" d="M82.89,113.54a6.23,6.23,0,0,1,.16-1.11l.48-1a8.68,8.68,0,0,0,1-1.35l-3.26-1.67c-.08.08-.16.16-.08.24l-.16.16c-.48.79-2,1-3.26.56a35,35,0,0,1-4.69-1.67c-.24.72-.4,1.35-.64,2.07,1.91.48,3.74,1.35,4.61,1.59a3.43,3.43,0,0,1,2.23,1.91A7.55,7.55,0,0,1,75.5,120c.87,1.19,1.67,2.3,2.38,3.18C81.22,121.25,83,118.79,82.89,113.54Z" transform="translate(-39.33 -40.36)"/><path class="cls-16" d="M81.7,192.15a1.71,1.71,0,0,0,.79-.64,1.12,1.12,0,0,1-.72-.08c-.08-.08-.16,0-.24-.08-3.5-1.43-4.53-3.89-5.4-8.11,0-.16-.08-.4-.08-.72l-4-.48c.08.56.32,1.75.4,2,1,4.93,2,8,5.8,9.94Z" transform="translate(-39.33 -40.36)"/><path class="cls-17" d="M107.07,175.4c1.45,5.41-20.46,11.28-21.91,5.87Z" transform="translate(-39.33 -40.36)"/><path class="cls-17" d="M94.26,139.66a15.82,15.82,0,0,1,7.09-23c-.19-.06-.38-.13-.59-.18a12,12,0,0,0-6.5,23.18Z" transform="translate(-39.33 -40.36)"/><path class="cls-18" d="M90.79,126.43c-1.42-.87,3.34-8.65,4.76-7.78Z" transform="translate(-39.33 -40.36)"/><path class="cls-18" d="M93.65,179.87c.6,2.25-5.46,3.87-6.07,1.63Z" transform="translate(-39.33 -40.36)"/><path d="M113.92,143.25c-1.93-1.93-1.7-5.32.55-7.58s5.62-2.5,7.57-.54a4.84,4.84,0,0,1,1.06,1.64,5,5,0,0,0-1.38-2.74c-2.12-2.12-5.81-1.84-8.25.6s-2.7,6.15-.6,8.25a5.06,5.06,0,0,0,2.74,1.38A3.94,3.94,0,0,1,113.92,143.25Z" transform="translate(-39.33 -40.36)"/><path class="cls-19" d="M113.22,143.24h0c-1.83-1.83-1.33-5.3,1.11-7.74h0c2.45-2.45,5.91-2.95,7.74-1.11h0c1.83,1.83,1.33,5.3-1.11,7.74h0C118.52,144.57,115.06,145.07,113.22,143.24Z" transform="translate(-39.33 -40.36)"/><path class="cls-20" d="M115.9,141.45a3,3,0,0,1,4.2-4.2,2.5,2.5,0,0,1,.55.84,2.59,2.59,0,0,0-.71-1.42,3.27,3.27,0,0,0-4.57,4.57,2.61,2.61,0,0,0,1.42.71A2,2,0,0,1,115.9,141.45Z" transform="translate(-39.33 -40.36)"/><path class="cls-20" d="M115.54,141.45h0c-.95-.95-.69-2.73.58-4h0c1.26-1.26,3.05-1.52,4-.58h0c.95.95.69,2.73-.58,4h0C118.28,142.13,116.49,142.39,115.54,141.45Z" transform="translate(-39.33 -40.36)"/><path d="M144.34,146.1c2.64.71,4.14,3.76,3.31,6.84s-3.62,5-6.29,4.26a4.84,4.84,0,0,1-1.73-.89A5,5,0,0,0,142.2,158c2.9.78,6-1.32,6.85-4.65s-.74-6.68-3.6-7.45a5.06,5.06,0,0,0-3.07.17A3.93,3.93,0,0,1,144.34,146.1Z" transform="translate(-39.33 -40.36)"/><path class="cls-19" d="M144.95,145.76h0c2.5.67,3.8,3.92,2.91,7.26h0c-.9,3.34-3.65,5.51-6.15,4.84h0c-2.5-.67-3.8-3.92-2.91-7.26h0C139.7,147.26,142.45,145.09,144.95,145.76Z" transform="translate(-39.33 -40.36)"/><path class="cls-20" d="M143.52,148.65a3,3,0,0,1-1.54,5.73,2.5,2.5,0,0,1-.89-.46,2.59,2.59,0,0,0,1.33.87,3.27,3.27,0,0,0,1.67-6.25,2.61,2.61,0,0,0-1.58.09A2,2,0,0,1,143.52,148.65Z" transform="translate(-39.33 -40.36)"/><path class="cls-20" d="M143.84,148.47h0c1.29.35,2,2,1.5,3.75h0c-.46,1.73-1.88,2.84-3.17,2.5h0c-1.29-.35-2-2-1.5-3.75h0C141.13,149.25,142.55,148.13,143.84,148.47Z" transform="translate(-39.33 -40.36)"/><path d="M102.7,162.94c2.47,0,4.49,2.31,4.49,5.19s-2,5.18-4.49,5.18a4.37,4.37,0,0,1-1.72-.37,4.53,4.53,0,0,0,2.63.87c2.71,0,4.88-2.54,4.88-5.65s-2.2-5.65-4.88-5.65a4.57,4.57,0,0,0-2.63.87A3.55,3.55,0,0,1,102.7,162.94Z" transform="translate(-39.33 -40.36)"/><path class="cls-19" d="M103.16,162.51h0c2.34,0,4.23,2.53,4.23,5.65h0c0,3.12-1.89,5.65-4.23,5.65h0c-2.34,0-4.23-2.53-4.23-5.65h0C98.92,165,100.82,162.51,103.16,162.51Z" transform="translate(-39.33 -40.36)"/><path class="cls-20" d="M102.59,165.36a2.71,2.71,0,0,1,0,5.36,2.25,2.25,0,0,1-.89-.19,2.34,2.34,0,0,0,1.36.45,3,3,0,0,0,0-5.84,2.36,2.36,0,0,0-1.36.45A1.83,1.83,0,0,1,102.59,165.36Z" transform="translate(-39.33 -40.36)"/><path class="cls-20" d="M102.82,165.13h0c1.21,0,2.18,1.31,2.18,2.92h0c0,1.61-1,2.92-2.18,2.92h0c-1.21,0-2.18-1.31-2.18-2.92h0C100.64,166.44,101.61,165.13,102.82,165.13Z" transform="translate(-39.33 -40.36)"/><path class="cls-2" d="M195.79,145.55l10,5.06-10,5" transform="translate(-39.33 -40.36)"/><path d="M192.89,123.12l6.18-1-2.58,8.71a29.07,29.07,0,0,1,5.7-7.49,4.18,4.18,0,0,1,2.36-1.22,1.24,1.24,0,0,1,.93.35,1.39,1.39,0,0,1,.34,1,4.51,4.51,0,0,1-.61,2.26,1.34,1.34,0,0,1-1.24.81,1,1,0,0,1-.71-.27,1.3,1.3,0,0,1-.37-.82.69.69,0,0,0-.16-.45.47.47,0,0,0-.34-.14,1.2,1.2,0,0,0-.57.14,6.29,6.29,0,0,0-1.42,1.4,39,39,0,0,0-3.22,4.55,13.51,13.51,0,0,0-1.29,2.67q-.75,2-.86,2.45l-.57,2.26h-2.74L195,127.21a11.34,11.34,0,0,0,.57-2.76.66.66,0,0,0-.27-.54,1.48,1.48,0,0,0-.95-.29,10.47,10.47,0,0,0-1.38.16Z" transform="translate(-39.33 -40.36)"/><path class="cls-21" d="M165.31,179.93a2.5,2.5,0,1,1,0,.78" transform="translate(-39.33 -40.36)"/><path class="cls-22" d="M167.69,182.8a2.5,2.5,0,1,1,.18-5" transform="translate(-39.33 -40.36)"/><path d="M154.26,182.8a7.29,7.29,0,0,1,1.29,1.81,24.15,24.15,0,0,1,1,3.3l1.54-2.3a9.71,9.71,0,0,1,1.48-1.6,6.08,6.08,0,0,1,1.54-1,2.38,2.38,0,0,1,.92-.17,1.72,1.72,0,0,1,1.2.4,1.27,1.27,0,0,1,.44,1,1.23,1.23,0,0,1-.26.91,1.63,1.63,0,0,1-1.12.44,2.24,2.24,0,0,1-.79-.16,4.38,4.38,0,0,0-1.1-.28,1.67,1.67,0,0,0-1,.49,13.84,13.84,0,0,0-2.58,3.51l1.43,6a5.38,5.38,0,0,0,.56,1.65.62.62,0,0,0,.45.27,1.44,1.44,0,0,0,.86-.4,6.84,6.84,0,0,0,1.64-2.09l.61.31a10.93,10.93,0,0,1-2.79,3.42A2.84,2.84,0,0,1,158,199a1.74,1.74,0,0,1-1.55-1.1,42.82,42.82,0,0,1-1.52-5.86q-2.72,4.73-4.36,6.09a3.29,3.29,0,0,1-2.06.87,1.89,1.89,0,0,1-1.27-.51,1.33,1.33,0,0,1-.42-1,1.3,1.3,0,0,1,.38-1,1.28,1.28,0,0,1,.94-.38,1.85,1.85,0,0,1,1.19.56,1.29,1.29,0,0,0,.7.4,1,1,0,0,0,.54-.28,13.23,13.23,0,0,0,2.23-2.86,28.13,28.13,0,0,0,1.85-3.18q-1.08-4.24-1.17-4.48a3.27,3.27,0,0,0-1-1.61,3.21,3.21,0,0,0-1.9-.47q-.4,0-.92,0v-.63Z" transform="translate(-39.33 -40.36)"/><path class="cls-1" d="M84.94,62.89c43-31.83,104-28.26,142.68,10.4A109.78,109.78,0,0,1,72.52,228.7C34,190.2,30.14,129.81,60.88,87.27" transform="translate(-39.33 -40.36)"/></g></svg>