<svg id="Layer_1" data-name="Layer 1" xmlns="http://www.w3.org/2000/svg" viewBox="0 0 418.15 185"><defs><style>.cls-1{fill:#8b8f90;}.cls-2{fill:#dedad2;}.cls-3{fill:#f0ebe9;}.cls-4{fill:#fff;}.cls-5{fill:#ada497;}</style></defs><title>traysvg</title><g id="widget"><path class="cls-1" d="M-24.16,208.86c34.25,2.21,92,3.68,174.1,3.68,78.49,0,138.42-1.1,174.1-3.68a52.14,52.14,0,0,0,12.84-2.21,46.93,46.93,0,0,0,6.07-2.39h0l1.07-.55,1.07-.55h0a9.43,9.43,0,0,0,2.5-2,12.7,12.7,0,0,0,4.28-7c4.28-17.65,7.13-32,7.13-74.29,0-40.46-2.14-55.9-6.78-74.11-.36-2.39-2.14-4.78-4.28-6.62A18.65,18.65,0,0,0,344,36.37L343.3,36l-.71-.37a41.62,41.62,0,0,0-5.71-2.21A67,67,0,0,0,324,31.22c-35.32-2.39-95.61-3.68-174.1-3.68C67.89,27.91,9.74,29.19-23.8,31.4a74.93,74.93,0,0,0-13.56,2.21c-1.43.37-2.5.92-3.92,1.29h0l-1.07.55-1.07.55h0a29.67,29.67,0,0,0-4.64,3.13,15.06,15.06,0,0,0-4.28,6.62C-57,64-59.47,79.58-59.12,119.86c0,42.3,2.85,56.64,7.13,74.29a13,13,0,0,0,4.64,6.8,21.61,21.61,0,0,0,3.92,2.76l.71.37.71.37a31.71,31.71,0,0,0,5.35,2A39.91,39.91,0,0,0-24.16,208.86Z" transform="translate(59.15 -27.54)"/><path class="cls-2" d="M-20.23,206.47C12.95,208.49,70,210,149.94,210c76.35,0,135.57-1.1,170.17-3.49a46.3,46.3,0,0,0,12.13-2.21,41.57,41.57,0,0,0,5.71-2.21h0c.36-.18,1.07-.18,1.43-.37l1.07-.55h0a5.68,5.68,0,0,0,2.14-1.84c2.14-1.84,3.92-4.23,4.28-6.62,3.92-17.1,6.78-31.08,6.78-72.27.71-39.35-1.43-54.43-6.07-72.27q-.54-3.59-4.28-6.62a21.62,21.62,0,0,0-3.92-2.76l-.71-.37L338,38a31.78,31.78,0,0,0-5.35-2,58.45,58.45,0,0,0-12.84-2.21c-34.6-2.39-93.83-3.49-170.17-3.49C70.38,30.3,12.95,31.59-20.23,34a52.14,52.14,0,0,0-12.84,2.21c-1.43.37-2.5.92-3.57,1.1h0l-1.07.55-1.07.55h0a22.17,22.17,0,0,0-4.28,2.94A10.78,10.78,0,0,0-47,47.77c-4.64,17.84-6.78,32.92-7.13,72.09,0,41.19,2.5,55,6.78,72.27.36,2.39,2.14,4.78,4.28,6.62a18.62,18.62,0,0,0,3.92,2.76l.71.37.71.37a36.53,36.53,0,0,0,5.35,2A37.84,37.84,0,0,0-20.23,206.47Z" transform="translate(59.15 -27.54)"/><path class="cls-3" d="M8,188.27C34,189.92,86.8,191,149.58,191c59.94,0,114.52-.92,141.63-2.76a39.7,39.7,0,0,0,9.28-1.84,23.4,23.4,0,0,0,4.28-1.84h0c.36-.18,1.07-.18,1.43-.37l1.07-.55h0c.71-.37,1.07-.92,2.14-1.47a9.39,9.39,0,0,0,3.21-5.33C315.83,163.44,318,152.41,318,120c0-30.89-1.78-42.85-5.35-56.82a9.69,9.69,0,0,0-3.57-5.15,12.49,12.49,0,0,0-3.21-2.39l-.36-.18-.36-.18a27.6,27.6,0,0,0-4.64-1.66,70,70,0,0,0-10-1.84c-26-1.66-80.27-2.39-140.56-2.57C87.15,49.24,34.35,50.34,8.31,52A43.69,43.69,0,0,0-2,53.65a9.16,9.16,0,0,0-2.85,1.1h0L-6,55.31-7,55.86h0a12.48,12.48,0,0,0-3.21,2.39c-1.43,1.47-2.85,3.31-3.21,5-3.57,14-5.35,25.93-5.35,56.82,0,32.37,2.14,43.4,5.35,56.82a9.39,9.39,0,0,0,3.21,5.33,12,12,0,0,0,2.86,2.21l.36.18.36.18a23.54,23.54,0,0,0,4.28,1.47A30.56,30.56,0,0,0,8,188.27Z" transform="translate(59.15 -27.54)"/><path class="cls-4" d="M291.22,190.84c-33.54,2.94-196.93,4-244.38,1.66C8,191.94-5.25,186.61-10.6,189a117.39,117.39,0,0,0-12.84,6.25c-7.49,4.23-11.06,6.44-4.64,7.54,11.77,1.65,129.86,4,180.52,4S311.2,204.45,324,203s2.14-5.52-4.64-8.64C308.34,189.37,301.21,189.74,291.22,190.84Z" transform="translate(59.15 -27.54)"/><path class="cls-5" d="M6.17,49.79c33.54-2.94,198.71-3.86,246.16-1.47,38.89.55,52.8,4,58.15,1.66,6.78-2.76,7.85-4,10.35-5.33,7.49-4.23,11.06-6.44,4.64-7.54-11.77-1.66-129.86-4-180.52-4-50.3-.18-158.4,2.21-171.24,3.68s-2.14,5.52,4.64,8.64C-9.89,50.71-3.82,50.89,6.17,49.79Z" transform="translate(59.15 -27.54)"/></g></svg>